<svg width="20" height="20" viewBox="0 0 20 20" fill="none" xmlns="http://www.w3.org/2000/svg">
<g clip-path="url(#clip0_216_1546)">
<path d="M6.66651 10.0061C6.66327 8.16547 8.15303 6.6702 9.99334 6.66696C11.834 6.66336 13.3296 8.1525 13.3331 9.99352C13.3367 11.8345 11.8469 13.3295 10.006 13.3331C8.16565 13.3366 6.67006 11.8472 6.66651 10.0061ZM4.86542 10.0097C4.87092 12.8457 7.17424 15.1397 10.0096 15.1341C12.8452 15.1286 15.1404 12.8259 15.1349 9.98993C15.1294 7.15489 12.8258 4.85965 9.98979 4.86516C7.15444 4.87067 4.85991 7.17434 4.86542 10.0097ZM14.1273 4.65457C14.1286 5.3168 14.667 5.85305 15.3293 5.85176C15.9919 5.85047 16.5281 5.31227 16.5271 4.65004C16.5258 3.98778 15.9874 3.45121 15.3248 3.4525C14.6622 3.45379 14.126 3.99227 14.1273 4.65457ZM5.9751 18.1468C5.00018 18.1043 4.47077 17.9423 4.11795 17.8066C3.65073 17.6257 3.31733 17.409 2.96643 17.0607C2.6162 16.7111 2.39877 16.3787 2.21635 15.9124C2.07932 15.5596 1.9144 15.0308 1.8687 14.0559C1.81913 13.0019 1.8078 12.6857 1.80295 10.0156C1.79776 7.34606 1.80749 7.02985 1.8535 5.97489C1.89526 5.00059 2.05827 4.47051 2.1937 4.11801C2.37448 3.65016 2.59061 3.31739 2.93956 2.96649C3.28913 2.61563 3.62155 2.39883 4.08811 2.21641C4.44065 2.07871 4.9694 1.91508 5.94401 1.86875C6.99862 1.81887 7.31452 1.80817 9.98397 1.80297C12.654 1.79782 12.9702 1.80719 14.0252 1.85356C14.9994 1.89598 15.5295 2.05735 15.8817 2.19375C16.3492 2.37453 16.6826 2.59 17.0332 2.93961C17.3838 3.28922 17.6012 3.62098 17.7836 4.08852C17.9213 4.44008 18.0849 4.9695 18.131 5.94375C18.1812 6.9984 18.1925 7.31465 18.1974 9.9841C18.2025 12.6542 18.1928 12.9705 18.1465 14.0248C18.104 14.9997 17.9424 15.5295 17.8063 15.8826C17.6255 16.3495 17.4094 16.6829 17.0601 17.0338C16.7108 17.3834 16.3784 17.6014 15.9115 17.7839C15.5596 17.9213 15.0303 18.0852 14.0563 18.1315C13.0017 18.1811 12.6858 18.1924 10.0154 18.1973C7.34592 18.2025 7.03006 18.1924 5.9751 18.1468ZM5.85846 0.0692609C4.79444 0.119456 4.06772 0.289886 3.43264 0.538714C2.77526 0.795003 2.21799 1.13848 1.66366 1.69512C1.10862 2.25207 0.76776 2.81032 0.513424 3.46836C0.267213 4.10504 0.100338 4.83211 0.0533456 5.8968C0.00670495 6.96344 -0.00399817 7.30364 0.00119714 10.0191C0.00639245 12.7343 0.0183456 13.0751 0.0692049 14.142C0.120064 15.2057 0.289869 15.9322 0.538697 16.5675C0.795299 17.225 1.13842 17.7819 1.69538 18.3366C2.25202 18.8913 2.81061 19.2318 3.46897 19.4865C4.10499 19.7324 4.83233 19.8999 5.8967 19.9466C6.96331 19.9936 7.30381 20.0039 10.0186 19.9988C12.7347 19.9936 13.0753 19.9816 14.1419 19.9311C15.2059 19.8802 15.9319 19.7098 16.5676 19.4616C17.225 19.2043 17.7823 18.8618 18.3367 18.3049C18.891 17.7482 19.2319 17.1897 19.4862 16.5313C19.7325 15.8952 19.9 15.1679 19.9463 14.1041C19.993 13.0369 20.004 12.696 19.9988 9.98086C19.9936 7.26539 19.9813 6.9252 19.9308 5.85887C19.8802 4.79422 19.7098 4.06809 19.4613 3.43239C19.2044 2.775 18.8616 2.21836 18.3049 1.66336C17.7483 1.10899 17.1897 0.767464 16.5314 0.513792C15.895 0.267503 15.168 0.0996906 14.1036 0.053675C13.037 0.00640936 12.6965 -0.00398126 9.98069 0.00121406C7.26557 0.00640937 6.92506 0.01805 5.85846 0.0692609Z" fill="white"/>
</g>
<defs>
<clipPath id="clip0_216_1546">
<rect width="20" height="20" fill="white"/>
</clipPath>
</defs>
</svg>
